<svg width="60" height="60" viewBox="0 0 60 60" fill="none" xmlns="http://www.w3.org/2000/svg">
<path fill-rule="evenodd" clip-rule="evenodd" d="M56.4844 19.582C56.4844 21.1005 55.249 22.3359 53.7305 22.3359C50.3381 22.3359 47.5781 25.0958 47.5781 28.4883C47.5781 31.1362 47.9727 33.7621 48.7509 36.2929L51.5279 45.3251C51.7181 45.9437 52.2809 46.3594 52.9281 46.3594C54.6952 46.3594 56.1328 47.797 56.1328 49.5641V49.875H56.7773C58.5543 49.875 60 51.3206 60 53.0977V56.0273C60 57.8044 58.5543 59.25 56.7773 59.25H25.957C24.1801 59.25 22.7344 57.8044 22.7344 56.0273V53.0977C22.7344 51.3206 24.1801 49.875 25.957 49.875H31.4062V49.5641C31.4062 47.797 32.8439 46.3594 34.611 46.3594H36.3482C37.1953 46.3594 37.9693 45.9681 38.4715 45.2858C38.9738 44.6036 39.1174 43.7483 38.8658 42.9394L36.5325 35.4394C36.1876 34.3308 35.1758 33.5859 34.0148 33.5859H32.2852C31.1544 33.5859 30.2344 32.6659 30.2344 31.5352V30.6562H29.3555C27.9016 30.6562 26.7188 29.4735 26.7188 28.0195V22.3359H25.3712C24.2255 22.3359 23.2485 21.6011 22.8857 20.5781H20.0978C18.952 20.5781 17.975 19.8432 17.6122 18.8203H11.3105C11.1737 18.8197 11.0385 18.7873 10.9155 18.7275L8.04774 17.2936C7.34848 16.944 6.91406 16.2411 6.91406 15.4594V13.5469H0.878906C0.393398 13.5469 0 13.1534 0 12.668C0 12.1826 0.393398 11.7891 0.878906 11.7891H6.91406V9.87656C6.91406 9.0948 7.34848 8.39191 8.04774 8.04234L10.9155 6.60844C11.0377 6.54855 11.1725 6.5168 11.3086 6.51562H17.6115C17.9743 5.49258 18.9518 4.75781 20.0977 4.75781H22.8855C23.2484 3.73488 24.2254 3 25.3711 3H53.7305C55.249 3 56.4844 4.23539 56.4844 5.75391V5.92969H56.7773C58.5543 5.92969 60 7.37531 60 9.15234V16.1836C60 17.9606 58.5543 19.4062 56.7773 19.4062H56.4844V19.582ZM58.2422 9.15234C58.2422 8.34457 57.5851 7.6875 56.7773 7.6875H56.4844V17.6484H56.7773C57.5851 17.6484 58.2422 16.9914 58.2422 16.1836V9.15234ZM8.83395 9.61453C8.73387 9.66445 8.67188 9.76488 8.67188 9.87656V15.4594C8.67188 15.5711 8.73387 15.6714 8.83395 15.7213L10.4297 16.5192V8.8166L8.83395 9.61453ZM19.2188 11.4961V17.9414C19.2188 18.4261 19.613 18.8203 20.0977 18.8203H22.7344V6.51562H20.0977C19.613 6.51562 19.2188 6.90984 19.2188 7.39453C19.2188 7.87992 18.8254 8.27344 18.3398 8.27344H12.1875V17.0625H17.4609V11.4961C17.4609 11.0107 17.8543 10.6172 18.3398 10.6172C18.8254 10.6172 19.2188 11.0107 19.2188 11.4961ZM28.4766 28.0195C28.4766 28.5042 28.8708 28.8984 29.3555 28.8984H30.2344V23.2148C30.2344 22.7302 29.8402 22.3359 29.3555 22.3359H28.4766V28.0195ZM47.0707 36.8094C46.241 34.1112 45.8203 31.3116 45.8203 28.4883C45.8203 24.1266 49.3688 20.5781 53.7305 20.5781C54.2797 20.5781 54.7266 20.1313 54.7266 19.582V5.75391C54.7266 5.20465 54.2797 4.75781 53.7305 4.75781H25.3711C24.8864 4.75781 24.4922 5.15203 24.4922 5.63672V19.6992C24.4922 20.1839 24.8864 20.5781 25.3711 20.5781H29.3555C30.8093 20.5781 31.9922 21.7609 31.9922 23.2148V31.5352C31.9922 31.6966 32.1236 31.8281 32.2852 31.8281H34.0148C35.9497 31.8281 37.6361 33.0695 38.2109 34.9171L40.5442 42.4171C40.9638 43.7653 40.7243 45.1908 39.8871 46.3279C39.05 47.465 37.7602 48.1172 36.3482 48.1172H34.611C33.8132 48.1172 33.1641 48.7663 33.1641 49.5641V49.875H47.8812C48.3667 49.875 48.7601 50.2685 48.7601 50.7539C48.7601 51.2393 48.3667 51.6328 47.8812 51.6328H25.957C25.1493 51.6328 24.4922 52.2899 24.4922 53.0977V56.0273C24.4922 56.8351 25.1493 57.4922 25.957 57.4922H56.7773C57.5851 57.4922 58.2422 56.8351 58.2422 56.0273V53.0977C58.2422 52.2899 57.5851 51.6328 56.7773 51.6328H51.9827C51.4972 51.6328 51.1038 51.2393 51.1038 50.7539C51.1038 50.2685 51.4972 49.875 51.9827 49.875H54.375V49.5641C54.375 48.7663 53.7259 48.1172 52.9281 48.1172C51.5041 48.1172 50.2662 47.2028 49.8477 45.8416L47.0707 36.8094ZM27.7148 6.51562H42.4805C43.2882 6.51562 43.9453 7.1727 43.9453 7.98047V17.3555C43.9453 18.1632 43.2882 18.8203 42.4805 18.8203H27.7148C26.9071 18.8203 26.25 18.1632 26.25 17.3555V7.98047C26.25 7.1727 26.9071 6.51562 27.7148 6.51562ZM28.0078 17.0625H42.1875V8.27344H28.0078V17.0625ZM52.0898 17.0625H46.6992C46.2137 17.0625 45.8203 17.456 45.8203 17.9414C45.8203 18.4268 46.2137 18.8203 46.6992 18.8203H52.0898C52.5754 18.8203 52.9688 18.4268 52.9688 17.9414C52.9688 17.456 52.5754 17.0625 52.0898 17.0625ZM46.6992 13.5469H52.0898C52.5754 13.5469 52.9688 13.9404 52.9688 14.4258C52.9688 14.9112 52.5754 15.3047 52.0898 15.3047H46.6992C46.2137 15.3047 45.8203 14.9112 45.8203 14.4258C45.8203 13.9404 46.2137 13.5469 46.6992 13.5469ZM52.0898 10.0312H46.6992C46.2137 10.0312 45.8203 10.4248 45.8203 10.9102C45.8203 11.3955 46.2137 11.7891 46.6992 11.7891H52.0898C52.5754 11.7891 52.9688 11.3955 52.9688 10.9102C52.9688 10.4248 52.5754 10.0312 52.0898 10.0312ZM46.6992 6.51562H52.0898C52.5754 6.51562 52.9688 6.90914 52.9688 7.39453C52.9688 7.87992 52.5754 8.27344 52.0898 8.27344H46.6992C46.2137 8.27344 45.8203 7.87992 45.8203 7.39453C45.8203 6.90914 46.2137 6.51562 46.6992 6.51562Z" fill="#6C6C6C"/>
</svg>
