<svg width="60" height="60" viewBox="0 0 60 60" fill="none" xmlns="http://www.w3.org/2000/svg">
<g clip-path="url(#clip0)">
<path d="M44.8734 9.78657C44.6399 10.2076 44.5161 10.6848 44.5161 11.1668C44.5161 11.9257 44.8124 12.6397 45.3492 13.1798L46.8211 14.6517C47.3593 15.1885 48.0733 15.4839 48.8332 15.4839C49.317 15.4839 49.7943 15.3601 50.2125 15.1276L56.7551 11.5094L48.51 3.24014L44.8734 9.78657ZM53.5722 11.0572L49.2736 13.435C48.9281 13.6278 48.4722 13.5649 48.1886 13.2823L46.7186 11.8123C46.5447 11.6361 46.4516 11.4135 46.4516 11.1668C46.4516 11.0128 46.4913 10.862 46.565 10.7274L48.9551 6.42688L53.5722 11.0572Z" fill="#6C6C6C"/>
<path d="M58.5862 7.86196L52.138 1.41476C51.2265 0.503245 50.014 0 48.724 0C46.9714 0 45.3535 0.951203 44.5024 2.48315L41.491 7.90543C40.9372 8.90011 40.6452 10.0285 40.6452 11.1668C40.6452 11.7532 40.7245 12.3378 40.8814 12.9114L19.8387 33.9541L14.5161 28.6316L7.72729 35.4204C2.74446 40.4032 0 47.0295 0 54.0764C0 55.6598 0.616652 57.1469 1.73513 58.2649C2.85503 59.3833 4.34208 60 5.92364 60C12.9714 60 19.5968 57.2555 24.5796 52.2727L31.3684 45.4839L26.0459 40.1613L47.0886 19.1186C48.7741 19.5793 50.5886 19.3454 52.0955 18.509L57.5169 15.4976C59.0488 14.6465 60 13.0295 60 11.276C60 9.98693 59.4977 8.77441 58.5862 7.86196ZM25.1613 31.3684L28.6316 34.8387L17.8508 45.6195L12.299 47.701L14.3805 42.1492L25.1613 31.3684ZM28.6316 45.4839L23.2112 50.9043C18.5941 55.5214 12.455 58.0645 5.92364 58.0645C4.87462 58.0645 3.84687 57.6388 3.10358 56.8964C2.35084 56.1437 1.93548 55.1419 1.93548 54.0764C1.93548 47.546 4.47864 41.4069 9.09573 36.7888L14.5161 31.3684L18.4703 35.3226L12.7163 41.0766L8.99131 51.0087L18.9234 47.2837L24.6774 41.5297L28.6316 45.4839ZM56.576 13.8059L51.1538 16.8174C49.9568 17.4841 48.4953 17.6112 47.1609 17.1108L46.5773 16.892L30 33.4703L26.5297 30L43.107 13.4217L42.8883 12.8382C42.6841 12.2915 42.5806 11.7291 42.5806 11.1668C42.5806 10.3569 42.7886 9.55362 43.1826 8.84529L46.1941 3.42301C46.7044 2.50536 47.6731 1.93548 48.724 1.93548C49.4971 1.93548 50.2229 2.23649 50.7696 2.7832L57.2177 9.23041C57.7635 9.77807 58.0645 10.5039 58.0645 11.276C58.0645 12.326 57.4946 13.2956 56.576 13.8059Z" fill="#6C6C6C"/>
</g>
<defs>
<clipPath id="clip0">
<rect width="60" height="60" fill="white"/>
</clipPath>
</defs>
</svg>
