<svg width="60" height="60" viewBox="0 0 60 60" fill="none" xmlns="http://www.w3.org/2000/svg">
<path d="M30 26.25C29.2583 26.25 28.5333 26.4699 27.9166 26.882C27.2999 27.294 26.8193 27.8797 26.5354 28.5649C26.2516 29.2501 26.1773 30.0041 26.322 30.7316C26.4667 31.459 26.8239 32.1272 27.3483 32.6516C27.8728 33.1761 28.541 33.5332 29.2684 33.6779C29.9958 33.8226 30.7498 33.7484 31.435 33.4645C32.1203 33.1807 32.7059 32.7001 33.118 32.0834C33.53 31.4667 33.75 30.7417 33.75 30C33.7489 29.0058 33.3534 28.0526 32.6504 27.3496C31.9474 26.6465 30.9942 26.2511 30 26.25ZM30 31.875C29.6291 31.875 29.2666 31.765 28.9583 31.559C28.6499 31.353 28.4096 31.0601 28.2677 30.7175C28.1258 30.3749 28.0887 29.9979 28.161 29.6342C28.2333 29.2705 28.4119 28.9364 28.6741 28.6742C28.9364 28.4119 29.2705 28.2334 29.6342 28.161C29.9979 28.0887 30.3749 28.1258 30.7175 28.2677C31.0601 28.4096 31.353 28.6499 31.559 28.9583C31.765 29.2666 31.875 29.6291 31.875 30C31.8744 30.4971 31.6767 30.9737 31.3251 31.3252C30.9736 31.6767 30.4971 31.8744 30 31.875Z" fill="#6C6C6C"/>
<path d="M50.55 9.44999C47.8565 6.72772 44.6516 4.56461 41.1194 3.085C37.5873 1.60539 33.7975 0.838445 29.968 0.828258C26.1384 0.818071 22.3446 1.56484 18.8047 3.02564C15.2647 4.48644 12.0483 6.63246 9.34038 9.34036C6.63248 12.0483 4.48645 15.2646 3.02565 18.8046C1.56485 22.3446 0.818087 26.1384 0.828274 29.968C0.838461 33.7975 1.6054 37.5873 3.08501 41.1194C4.56462 44.6516 6.72773 47.8565 9.45 50.55C12.1435 53.2723 15.3484 55.4354 18.8805 56.915C22.4127 58.3946 26.2025 59.1615 30.032 59.1717C33.8616 59.1819 37.6554 58.4351 41.1953 56.9743C44.7353 55.5135 47.9517 53.3675 50.6596 50.6596C53.3675 47.9517 55.5135 44.7353 56.9743 41.1953C58.4351 37.6553 59.1819 33.8615 59.1717 30.032C59.1615 26.2025 58.3946 22.4127 56.915 18.8805C55.4354 15.3484 53.2723 12.1434 50.55 9.44999ZM49.2246 49.2246C44.1259 54.3233 37.2106 57.1877 30 57.1877C22.7894 57.1877 15.8741 54.3233 10.7754 49.2246C5.67671 44.1259 2.8123 37.2106 2.8123 30C2.8123 22.7894 5.67671 15.8741 10.7754 10.7754C15.8741 5.67669 22.7894 2.81228 30 2.81228C37.2106 2.81228 44.1259 5.67669 49.2246 10.7754C54.3233 15.8741 57.1877 22.7894 57.1877 30C57.1877 37.2106 54.3233 44.1259 49.2246 49.2246Z" fill="#6C6C6C"/>
<path d="M30 9.37498C18.6269 9.37498 9.37498 18.6269 9.37498 30C9.37498 41.373 18.6269 50.625 30 50.625C41.373 50.625 50.625 41.373 50.625 30C50.625 18.6269 41.373 9.37498 30 9.37498ZM45.0914 18.8859C46.9002 21.3307 48.0838 24.1806 48.539 27.1875H38.9426C38.7783 26.6623 38.5673 26.1528 38.3121 25.6652L45.0914 18.8859ZM32.8125 11.4609C35.8193 11.9162 38.6693 13.0998 41.114 14.9086L34.3347 21.6879C33.8472 21.4327 33.3377 21.2217 32.8125 21.0574V11.4609ZM27.1875 11.4609V21.0574C26.6623 21.2217 26.1528 21.4327 25.6652 21.6879L18.8859 14.9086C21.3307 13.0998 24.1806 11.9162 27.1875 11.4609ZM14.9086 18.8859L21.6879 25.6652C21.4327 26.1528 21.2217 26.6623 21.0574 27.1875H11.4609C11.9162 24.1806 13.0998 21.3307 14.9086 18.8859ZM14.9086 41.114C13.0998 38.6693 11.9162 35.8193 11.4609 32.8125H21.0574C21.2217 33.3377 21.4327 33.8472 21.6879 34.3347L14.9086 41.114ZM27.1875 48.539C24.1806 48.0838 21.3307 46.9002 18.8859 45.0914L25.6652 38.3121C26.1528 38.5673 26.6623 38.7783 27.1875 38.9426V48.539ZM32.8125 48.539V38.9426C33.3377 38.7783 33.8472 38.5673 34.3347 38.3121L41.114 45.0914C38.6693 46.9002 35.8193 48.0838 32.8125 48.539ZM45.0914 41.114L38.3121 34.3347C38.5673 33.8472 38.7783 33.3377 38.9426 32.8125H48.539C48.0838 35.8193 46.9002 38.6693 45.0914 41.114ZM38.2254 30.9375C38.0129 30.9377 37.8067 31.0101 37.6407 31.1427C37.4747 31.2753 37.3585 31.4604 37.3113 31.6676C37.1247 32.4908 36.7994 33.2762 36.3492 33.9902C36.236 34.1703 36.1872 34.3834 36.2108 34.5948C36.2344 34.8062 36.3291 35.0033 36.4793 35.1539L43.8984 42.5719C43.4788 43.036 43.036 43.4788 42.5718 43.8984L35.1539 36.4793C35.0033 36.3291 34.8062 36.2344 34.5948 36.2108C34.3834 36.1872 34.1703 36.236 33.9902 36.3492C33.2762 36.7994 32.4908 37.1247 31.6676 37.3113C31.4604 37.3585 31.2753 37.4747 31.1427 37.6407C31.0101 37.8067 30.9377 38.0129 30.9375 38.2254V48.7265C30.6269 48.7418 30.3144 48.7496 30 48.75C29.6855 48.7504 29.373 48.7426 29.0625 48.7265V38.2254C29.0622 38.0129 28.9899 37.8067 28.8572 37.6407C28.7246 37.4747 28.5396 37.3585 28.3324 37.3113C27.5092 37.1247 26.7238 36.7994 26.0097 36.3492C25.8297 36.236 25.6165 36.1872 25.4052 36.2108C25.1938 36.2344 24.9967 36.3291 24.8461 36.4793L17.4281 43.8984C16.9639 43.4788 16.5212 43.036 16.1015 42.5719L23.5207 35.1539C23.6709 35.0033 23.7655 34.8062 23.7891 34.5948C23.8128 34.3834 23.764 34.1703 23.6508 33.9902C23.2006 33.2762 22.8752 32.4908 22.6886 31.6676C22.6414 31.4604 22.5253 31.2753 22.3593 31.1427C22.1932 31.0101 21.9871 30.9377 21.7746 30.9375H11.2734C11.2578 30.6269 11.25 30.3144 11.25 30C11.25 29.6855 11.2578 29.373 11.2734 29.0625H21.7746C21.9871 29.0622 22.1932 28.9899 22.3593 28.8573C22.5253 28.7246 22.6414 28.5396 22.6886 28.3324C22.8752 27.5092 23.2006 26.7238 23.6508 26.0098C23.764 25.8297 23.8128 25.6166 23.7891 25.4052C23.7655 25.1938 23.6709 24.9967 23.5207 24.8461L16.1015 17.4281C16.5212 16.9639 16.9639 16.5212 17.4281 16.1015L24.8461 23.5207C24.9967 23.6709 25.1938 23.7655 25.4052 23.7892C25.6165 23.8128 25.8297 23.764 26.0097 23.6508C26.7238 23.2006 27.5092 22.8752 28.3324 22.6887C28.5396 22.6414 28.7246 22.5253 28.8572 22.3593C28.9899 22.1932 29.0622 21.9871 29.0625 21.7746V11.2734C29.373 11.2578 29.6855 11.25 30 11.25C30.3144 11.25 30.6269 11.2578 30.9375 11.2734V21.7746C30.9377 21.9871 31.0101 22.1932 31.1427 22.3593C31.2753 22.5253 31.4604 22.6414 31.6676 22.6887C32.4908 22.8752 33.2762 23.2006 33.9902 23.6508C34.1702 23.764 34.3834 23.8128 34.5948 23.7892C34.8062 23.7656 35.0033 23.6709 35.1539 23.5207L42.5718 16.1015C43.036 16.5212 43.4788 16.9639 43.8984 17.4281L36.4793 24.8461C36.3291 24.9967 36.2344 25.1938 36.2108 25.4052C36.1872 25.6166 36.236 25.8297 36.3492 26.0098C36.7994 26.7238 37.1247 27.5092 37.3113 28.3324C37.3585 28.5396 37.4747 28.7246 37.6407 28.8573C37.8067 28.9899 38.0129 29.0622 38.2254 29.0625H48.7265C48.7418 29.373 48.7496 29.6855 48.75 30C48.7504 30.3144 48.7425 30.6269 48.7265 30.9375H38.2254Z" fill="#6C6C6C"/>
</svg>
