<svg width="32" height="62" viewBox="0 0 32 62" fill="none" xmlns="http://www.w3.org/2000/svg">
<path d="M32 18.8079C32 8.42384 24.8477 0 16 0C7.15232 0 0 8.47682 0 18.8609C0 27.9735 5.56291 35.6026 12.8742 37.351L11.0199 41.9073C10.9139 42.1722 10.9669 42.4371 11.0728 42.649C11.2318 42.8609 11.4437 43.0199 11.7086 43.0199H14.2517C13.0331 45.404 12.1854 49.0596 15.1523 51.3377C18.3841 53.8278 14.1457 59.9205 14.0927 59.9735C13.8278 60.3444 13.9338 60.8212 14.3046 61.0861C14.4636 61.1921 14.6225 61.245 14.7815 61.245C15.0464 61.245 15.2583 61.1391 15.4172 60.9272C15.6291 60.6093 20.5563 53.5099 16.106 50.1192C13.298 48 15.3642 44.2384 16.053 43.0728H19.3907C19.6556 43.0728 19.9205 42.9139 20.0795 42.702C20.2384 42.4901 20.2384 42.1722 20.1325 41.9603L18.3841 37.457C26.0662 36.1324 32 28.2914 32 18.8079ZM12.9272 41.3775L14.4636 37.5629C14.9934 37.6159 15.4702 37.6689 16 37.6689C16.2649 37.6689 16.4768 37.6689 16.6887 37.6689L18.2781 41.3775H12.9272ZM16 36.0795C8.05298 36.0795 1.5894 28.3444 1.5894 18.8079C1.5894 9.3245 8.05298 1.5894 16 1.5894C23.947 1.5894 30.4106 9.3245 30.4106 18.8609C30.4106 28.3444 23.947 36.0795 16 36.0795Z" fill="#6C6C6C"/>
</svg>
