<svg width="19" height="19" viewBox="0 0 19 19" fill="none" xmlns="http://www.w3.org/2000/svg">
<path d="M18.2478 4.1923L9.62105 0.027665C9.54456 -0.00922168 9.4555 -0.00922168 9.37906 0.027665L0.752277 4.1923C0.65609 4.23873 0.594971 4.33614 0.594971 4.44294V14.5571C0.594971 14.6639 0.65609 14.7613 0.752277 14.8077L9.37902 18.9723C9.41724 18.9908 9.45866 19 9.50003 19C9.54141 19 9.58279 18.9908 9.62105 18.9723L18.2478 14.8077C18.344 14.7613 18.4051 14.6639 18.4051 14.5571V4.44298C18.4051 4.3361 18.3439 4.23876 18.2478 4.1923ZM9.50003 0.587386L17.4866 4.44294L15.1715 5.5606C15.1568 5.54943 15.1413 5.53911 15.1243 5.53091L7.19202 1.70159L9.50003 0.587386ZM6.56346 2.01628L14.5384 5.86623L12.905 6.65477L4.93339 2.80638L6.56346 2.01628ZM14.725 6.39422V9.30902L13.1993 10.0456V7.13077L14.725 6.39422ZM17.8485 14.3824L9.77835 18.2782V8.78225L11.7033 7.85296C11.8417 7.78612 11.8998 7.61976 11.833 7.48131C11.7661 7.34293 11.5998 7.28481 11.4613 7.35168L9.50003 8.29853L8.72831 7.92595C8.58985 7.85904 8.42349 7.91716 8.35666 8.05557C8.28982 8.19399 8.34786 8.36039 8.48628 8.42722L9.22171 8.78225V18.2782L1.15161 14.3824V4.88636L7.29692 7.85307C7.33593 7.87192 7.37715 7.88083 7.41771 7.88083C7.52118 7.88083 7.62055 7.82286 7.66854 7.72344C7.73537 7.58503 7.67733 7.41863 7.53891 7.35179L1.51346 4.44294L4.2783 3.10819L12.6388 7.14432C12.64 7.14602 12.6414 7.14754 12.6427 7.14921V10.489C12.6427 10.5848 12.6919 10.6738 12.773 10.7248C12.8181 10.7531 12.8695 10.7673 12.921 10.7673C12.9623 10.7673 13.0037 10.7582 13.042 10.7397L15.1243 9.7344C15.2205 9.68798 15.2816 9.5906 15.2816 9.48376V6.12555L17.8485 4.8864V14.3824Z" fill="#001A34"/>
</svg>
