<svg width="60" height="60" viewBox="0 0 60 60" fill="none" xmlns="http://www.w3.org/2000/svg">
<g clip-path="url(#clip0)">
<path fill-rule="evenodd" clip-rule="evenodd" d="M17.1094 -3.05176e-05H42.8906C45.3138 -3.05176e-05 47.2852 1.9713 47.2852 4.3945V55.6054C47.2852 58.0286 45.3138 60 42.8906 60H17.1094C14.6862 60 12.7148 58.0286 12.7148 55.6054V4.3945C12.7148 1.9713 14.6862 -3.05176e-05 17.1094 -3.05176e-05ZM20.625 47.6953H45.5273V8.78903H14.4727V47.6953H17.1094C17.5948 47.6953 17.9883 48.0888 17.9883 48.5742C17.9883 49.0596 17.5948 49.4531 17.1094 49.4531H14.4727V55.6054C14.4727 57.0594 15.6554 58.2422 17.1094 58.2422H42.8906C44.3446 58.2422 45.5273 57.0594 45.5273 55.6054V49.4531H20.625C20.1396 49.4531 19.7461 49.0596 19.7461 48.5742C19.7461 48.0888 20.1396 47.6953 20.625 47.6953ZM14.4727 7.03122H45.5273V4.3945C45.5273 2.94056 44.3446 1.75778 42.8906 1.75778H17.1094C15.6554 1.75778 14.4727 2.94056 14.4727 4.3945V7.03122ZM30 3.51559H33.5156C34.001 3.51559 34.3945 3.9091 34.3945 4.39449C34.3945 4.87988 34.001 5.2734 33.5156 5.2734H30C29.5146 5.2734 29.1211 4.87988 29.1211 4.39449C29.1211 3.9091 29.5146 3.51559 30 3.51559ZM30 51.2109C28.5461 51.2109 27.3633 52.3937 27.3633 53.8476C27.3633 55.3016 28.5461 56.4843 30 56.4843C31.4539 56.4843 32.6367 55.3016 32.6367 53.8476C32.6367 52.3937 31.4539 51.2109 30 51.2109ZM30 54.7265C29.5153 54.7265 29.1211 54.3323 29.1211 53.8476C29.1211 53.3629 29.5153 52.9687 30 52.9687C30.4847 52.9687 30.8789 53.3629 30.8789 53.8476C30.8789 54.3323 30.4847 54.7265 30 54.7265ZM27.3633 4.39449C27.3633 4.8799 26.9698 5.2734 26.4844 5.2734C25.999 5.2734 25.6055 4.8799 25.6055 4.39449C25.6055 3.90909 25.999 3.51559 26.4844 3.51559C26.9698 3.51559 27.3633 3.90909 27.3633 4.39449Z" fill="#6C6C6C"/>
</g>
<defs>
<clipPath id="clip0">
<rect width="60" height="60" fill="white"/>
</clipPath>
</defs>
</svg>
