<svg width="23" height="17" viewBox="0 0 23 17" fill="none" xmlns="http://www.w3.org/2000/svg">
<path d="M18.6201 5.37528H17.1721L17.6084 0.36607C17.6092 0.356996 17.6093 0.348056 17.6094 0.339117C17.6094 0.338353 17.6094 0.337634 17.6094 0.336871C17.6094 0.336736 17.6094 0.336646 17.6094 0.336511C17.6094 0.200173 17.5272 0.0800064 17.4063 0.027762C17.4053 0.0273128 17.4043 0.0267738 17.4033 0.0263246C17.3958 0.0231801 17.388 0.0204846 17.3802 0.0178791C17.3772 0.0169357 17.3745 0.0157677 17.3715 0.0148693C17.3652 0.0129376 17.3586 0.0114103 17.3521 0.00983801C17.3475 0.00875988 17.3431 0.00745723 17.3385 0.00655879C17.3328 0.00543574 17.3268 0.00471709 17.321 0.00386357C17.3155 0.00305498 17.3101 0.00211148 17.3046 0.00161733C17.3037 0.00152749 17.3028 0.00134766 17.3019 0.00125781C17.2959 0.000718747 17.2901 0.000808619 17.2842 0.000584009C17.2803 0.000449243 17.2764 0 17.2724 0H17.2682C17.2679 0 17.2675 0 17.2672 0H10.3774C10.1915 0 10.0405 0.150938 10.0405 0.336915C10.0405 0.522444 10.1915 0.673831 10.3774 0.673831H16.9052L16.2347 8.37235C16.2346 8.37293 16.2346 8.37352 16.2345 8.3741L16.0653 10.3166H4.35825L4.55406 8.29517H6.78314C6.96925 8.29517 7.12006 8.14432 7.12006 7.95826C7.12006 7.77219 6.96925 7.62134 6.78314 7.62134H4.61938L5.03284 3.35397H8.58056C8.76667 3.35397 8.91748 3.20312 8.91748 3.01706C8.91748 2.83099 8.76667 2.68014 8.58056 2.68014H5.09816L5.29258 0.673831H9.02978C9.21531 0.673831 9.3667 0.522444 9.3667 0.336915C9.3667 0.150938 9.21531 0 9.02978 0H4.9868C4.98662 0 4.98648 4.48974e-05 4.9863 4.48974e-05C4.82804 -2.46786e-08 4.69076 0.111407 4.65756 0.265849C4.65734 0.266972 4.65693 0.26805 4.65671 0.269173C4.655 0.277574 4.65388 0.286154 4.65276 0.294779C4.65244 0.297519 4.65186 0.300124 4.65159 0.302865C4.65154 0.303404 4.65141 0.303898 4.65136 0.304437L4.42118 2.68014H0.336915C0.150803 2.68014 0 2.83099 0 3.01706C0 3.20312 0.150803 3.35397 0.336915 3.35397H4.35587L3.9424 7.62134H2.74033C2.55422 7.62134 2.40342 7.77219 2.40342 7.95826C2.40342 8.14432 2.55422 8.29517 2.74033 8.29517H3.87713L3.65198 10.6186C3.65194 10.6189 3.65194 10.6193 3.65189 10.6196L3.30379 14.2124C3.30375 14.2128 3.3037 14.2133 3.30366 14.2137L3.30352 14.215C3.30307 14.2196 3.30312 14.2242 3.30285 14.2289C3.30253 14.2351 3.30191 14.2411 3.30191 14.2474C3.30191 14.2477 3.30195 14.248 3.30195 14.2483C3.30195 14.257 3.30258 14.2655 3.30321 14.274C3.30348 14.2768 3.30339 14.2796 3.3037 14.2822C3.3046 14.291 3.30608 14.2995 3.30766 14.3081C3.3081 14.3106 3.30833 14.3132 3.30882 14.3156C3.31013 14.3221 3.31197 14.3283 3.31367 14.3347C3.31484 14.3391 3.31579 14.3437 3.31713 14.348C3.31754 14.3492 3.31808 14.3504 3.31844 14.3517C3.33474 14.4018 3.36242 14.4468 3.39853 14.4835C3.39921 14.4842 3.39975 14.485 3.40042 14.4856C3.40401 14.4892 3.40792 14.4924 3.41169 14.4959C3.43492 14.5171 3.46115 14.5352 3.48986 14.5494C3.49583 14.5523 3.50172 14.5554 3.50783 14.558C3.50967 14.5588 3.51165 14.5593 3.51353 14.56C3.52198 14.5634 3.53047 14.5667 3.53923 14.5694C3.54004 14.5696 3.5408 14.5698 3.54161 14.57C3.55158 14.573 3.56164 14.5756 3.57193 14.5777C3.57328 14.578 3.57467 14.5781 3.57597 14.5783C3.58577 14.5802 3.59561 14.5817 3.60562 14.5827C3.60585 14.5827 3.60603 14.5828 3.60625 14.5828C3.6173 14.5839 3.62826 14.5844 3.63914 14.5844C3.63927 14.5844 3.63945 14.5844 3.63963 14.5844H5.13949C5.30511 15.8401 6.38167 16.8127 7.68194 16.8127C8.98212 16.8127 10.0587 15.8401 10.2243 14.5844H15.6284C15.7941 15.8401 16.8706 16.8127 18.1708 16.8127C19.471 16.8127 20.5476 15.8401 20.7133 14.5844H22.2135C22.2137 14.5844 22.214 14.5844 22.2142 14.5844C22.2255 14.5844 22.2365 14.5838 22.2475 14.5827C22.2494 14.5825 22.2513 14.5821 22.2533 14.5819C22.2621 14.5808 22.2708 14.5796 22.2793 14.5779C22.283 14.5772 22.2865 14.5762 22.2902 14.5754C22.2968 14.5738 22.3034 14.5722 22.3099 14.5703C22.3143 14.569 22.3186 14.5675 22.3229 14.566C22.3284 14.5641 22.3339 14.5621 22.3394 14.5599C22.344 14.5581 22.3485 14.556 22.353 14.554C22.358 14.5517 22.3629 14.5494 22.3677 14.5469C22.3723 14.5446 22.3767 14.5422 22.3811 14.5397C22.3857 14.537 22.3903 14.5342 22.3949 14.5313C22.3991 14.5286 22.4033 14.5259 22.4073 14.523C22.4119 14.5198 22.4163 14.5164 22.4207 14.513C22.4244 14.5101 22.4281 14.5072 22.4317 14.5042C22.4364 14.5003 22.4407 14.4962 22.4451 14.492C22.4482 14.4891 22.4514 14.4862 22.4543 14.4831C22.459 14.4784 22.4635 14.4733 22.4679 14.4683C22.4703 14.4655 22.4727 14.4629 22.475 14.4601C22.48 14.454 22.4845 14.4477 22.489 14.4414C22.4905 14.4392 22.4922 14.4371 22.4937 14.4348C22.4992 14.4266 22.5043 14.4182 22.5091 14.4095C22.5095 14.4089 22.5098 14.4084 22.51 14.4079C22.5151 14.3985 22.5198 14.3889 22.524 14.3791C22.5251 14.3762 22.526 14.3733 22.5271 14.3705C22.5299 14.3635 22.5326 14.3566 22.5349 14.3493C22.5364 14.3446 22.5374 14.3398 22.5387 14.3351C22.5402 14.3295 22.5418 14.3239 22.5431 14.3182C22.5442 14.3132 22.5449 14.3079 22.5457 14.3028C22.5465 14.2982 22.5475 14.2938 22.5481 14.2892C22.5624 14.1747 22.8262 12.058 22.944 10.6893C22.9442 10.688 22.9442 10.6867 22.9443 10.6854C22.9783 10.2908 23 9.95859 23 9.75518C23 7.34013 21.0352 5.37528 18.6201 5.37528ZM17.1134 6.0492H18.4917L18.3157 8.07052H16.9373L17.1134 6.0492ZM7.68203 16.1388C6.63907 16.1388 5.79059 15.2903 5.79059 14.2474C5.79059 13.2045 6.63912 12.356 7.68203 12.356C8.72494 12.356 9.57343 13.2045 9.57343 14.2474C9.57343 15.2903 8.72494 16.1388 7.68203 16.1388ZM18.1708 16.1388C17.1279 16.1388 16.2794 15.2903 16.2794 14.2474C16.2794 13.2045 17.1279 12.356 18.1708 12.356C19.2137 12.356 20.0622 13.2045 20.0622 14.2474C20.0622 15.2903 19.2137 16.1388 18.1708 16.1388ZM21.9158 13.9103H20.7134C20.5478 12.6545 19.4712 11.6819 18.1709 11.6819C16.8707 11.6819 15.7941 12.6546 15.6285 13.9103H10.2244C10.0589 12.6545 8.9823 11.6819 7.68203 11.6819C6.38176 11.6819 5.30511 12.6546 5.13953 13.9103H4.01001L4.29298 10.9902H16.3741V10.9904C16.3743 10.9904 16.3744 10.9904 16.3746 10.9904C16.3859 10.9904 16.397 10.9898 16.4081 10.9887C16.4102 10.9885 16.4122 10.988 16.4142 10.9878C16.4231 10.9867 16.4318 10.9855 16.4404 10.9838C16.4442 10.983 16.4478 10.982 16.4515 10.9811C16.4582 10.9794 16.465 10.9779 16.4715 10.9759C16.476 10.9745 16.4803 10.9729 16.4846 10.9714C16.4903 10.9694 16.496 10.9675 16.5014 10.9653C16.5062 10.9633 16.5107 10.9612 16.5153 10.959C16.5203 10.9567 16.5252 10.9544 16.5301 10.9519C16.5346 10.9495 16.5391 10.9469 16.5437 10.9443C16.5483 10.9416 16.5529 10.9388 16.5574 10.936C16.5617 10.9331 16.5659 10.9302 16.57 10.9272C16.5745 10.9241 16.5788 10.9208 16.5831 10.9175C16.587 10.9144 16.5908 10.9112 16.5946 10.9079C16.5988 10.9042 16.603 10.9004 16.6071 10.8965C16.6105 10.8932 16.6139 10.8899 16.6172 10.8864C16.6212 10.8822 16.6252 10.8778 16.629 10.8734C16.632 10.8699 16.635 10.8664 16.6379 10.8628C16.6416 10.8581 16.6451 10.8532 16.6487 10.8483C16.6513 10.8446 16.6539 10.841 16.6564 10.8372C16.6597 10.8321 16.6628 10.8269 16.6658 10.8216C16.6681 10.8176 16.6704 10.8137 16.6725 10.8096C16.6753 10.8043 16.6778 10.7989 16.6803 10.7935C16.6823 10.7892 16.6843 10.7849 16.6861 10.7804C16.6883 10.7751 16.6902 10.7697 16.6921 10.7642C16.6938 10.7594 16.6955 10.7546 16.697 10.7497C16.6985 10.7445 16.6997 10.7391 16.701 10.7338C16.7023 10.7285 16.7038 10.7232 16.7048 10.7177C16.7058 10.7124 16.7065 10.707 16.7073 10.7016C16.7081 10.6961 16.709 10.6906 16.7096 10.6849C16.7097 10.6841 16.7098 10.6834 16.7099 10.6826L16.8787 8.74417H18.62C19.6523 8.74417 20.1178 9.27901 20.6107 9.8453C21.0174 10.3125 21.4714 10.8339 22.2432 10.961C22.1451 11.9974 21.9867 13.3278 21.9158 13.9103ZM22.3007 10.2858C21.8001 10.1838 21.4921 9.83182 21.1189 9.40309C20.6522 8.86694 20.0824 8.21265 18.9903 8.09073L19.1646 6.08954C20.9508 6.35373 22.3262 7.89671 22.3262 9.75527C22.3262 9.88155 22.3167 10.065 22.3007 10.2858Z" fill="#001A34"/>
<path d="M7.68201 13.012C7.00086 13.012 6.44666 13.5661 6.44666 14.2473C6.44666 14.9285 7.00086 15.4827 7.68201 15.4827C8.36317 15.4827 8.91737 14.9285 8.91737 14.2473C8.91737 13.5662 8.36317 13.012 7.68201 13.012ZM7.68201 14.8088C7.37236 14.8088 7.12049 14.557 7.12049 14.2473C7.12049 13.9377 7.37236 13.6858 7.68201 13.6858C7.99166 13.6858 8.24354 13.9377 8.24354 14.2473C8.24354 14.557 7.99161 14.8088 7.68201 14.8088Z" fill="#001A34"/>
<path d="M18.1708 13.012C17.4896 13.012 16.9354 13.5661 16.9354 14.2473C16.9354 14.9285 17.4896 15.4827 18.1708 15.4827C18.8519 15.4827 19.4061 14.9285 19.4061 14.2473C19.4061 13.5662 18.8519 13.012 18.1708 13.012ZM18.1708 14.8088C17.8611 14.8088 17.6093 14.557 17.6093 14.2473C17.6093 13.9377 17.8611 13.6858 18.1708 13.6858C18.4804 13.6858 18.7323 13.9377 18.7323 14.2473C18.7323 14.557 18.4804 14.8088 18.1708 14.8088Z" fill="#001A34"/>
<path d="M3.18947 5.37537H1.54236C1.35625 5.37537 1.20544 5.52621 1.20544 5.71228C1.20544 5.89835 1.35625 6.0492 1.54236 6.0492H3.18947C3.37558 6.0492 3.52639 5.89835 3.52639 5.71228C3.52639 5.52621 3.37558 5.37537 3.18947 5.37537Z" fill="#001A34"/>
</svg>
