<svg width="60" height="60" viewBox="0 0 60 60" fill="none" xmlns="http://www.w3.org/2000/svg">
<path d="M55.3104 48.8682C55.3118 48.8285 55.3125 48.7891 55.3125 48.75C55.3114 47.7558 54.9159 46.8026 54.2129 46.0996C53.5099 45.3966 52.5567 45.0011 51.5625 45V27.6563L54.9375 25.125C55.0547 25.0371 55.1497 24.9229 55.2148 24.7917C55.2799 24.6604 55.3134 24.5157 55.3124 24.3692C55.3115 24.2227 55.2763 24.0784 55.2095 23.948C55.1428 23.8175 55.0464 23.7046 54.9281 23.6181L46.875 17.7331V7.50003C47.1236 7.50003 47.3621 7.40126 47.5379 7.22544C47.7137 7.04963 47.8125 6.81117 47.8125 6.56253V2.81253C47.8125 2.56389 47.7137 2.32543 47.5379 2.14962C47.3621 1.9738 47.1236 1.87503 46.875 1.87503H37.5C37.2513 1.87503 37.0129 1.9738 36.8371 2.14962C36.6613 2.32543 36.5625 2.56389 36.5625 2.81253V6.56253C36.5625 6.81117 36.6613 7.04963 36.8371 7.22544C37.0129 7.40126 37.2513 7.50003 37.5 7.50003V10.8822L30.5531 5.80562C30.3925 5.68829 30.1988 5.62506 30 5.62506C29.8011 5.62506 29.6074 5.68829 29.4469 5.80562L5.07186 23.6181C4.95356 23.7046 4.85717 23.8175 4.79042 23.948C4.72367 24.0784 4.68843 24.2227 4.68752 24.3692C4.68661 24.5157 4.72005 24.6604 4.78517 24.7917C4.85029 24.9229 4.94527 25.0371 5.06248 25.125L8.43748 27.6563V45C7.44326 45.0011 6.49009 45.3966 5.78707 46.0996C5.08405 46.8026 4.6886 47.7558 4.68748 48.75C4.68748 48.7891 4.68819 48.8285 4.68959 48.8682C3.80517 49.0956 3.03411 49.6379 2.52109 50.3933C2.00807 51.1488 1.78834 52.0655 1.90314 52.9714C2.01794 53.8774 2.45936 54.7103 3.1446 55.3139C3.82984 55.9176 4.71179 56.2504 5.62498 56.25H54.375C55.2882 56.2504 56.1701 55.9176 56.8554 55.3139C57.5406 54.7103 57.982 53.8774 58.0968 52.9714C58.2116 52.0655 57.9919 51.1488 57.4789 50.3933C56.9659 49.6379 56.1948 49.0956 55.3104 48.8682ZM38.4375 3.75003H45.9375V5.62503H38.4375V3.75003ZM39.375 12.1875V7.50003H45V16.3629L39.2863 12.1875H39.375ZM30 7.72362L52.7994 24.3849L50.6164 26.0221L30.5515 11.4293C30.3912 11.3128 30.1981 11.25 30 11.25C29.8018 11.25 29.6088 11.3128 29.4485 11.4293L9.38354 26.0221L7.20057 24.3849L30 7.72362ZM3.74998 52.5C3.7505 52.0078 3.94437 51.5354 4.28982 51.1847C4.63526 50.834 5.10465 50.633 5.59686 50.625H5.59908C5.64701 50.6317 5.69494 50.6374 5.74381 50.6406C5.89917 50.6504 6.05452 50.6214 6.19585 50.5561C6.33718 50.4909 6.46004 50.3915 6.55333 50.2668C6.64663 50.1422 6.70743 49.9964 6.73024 49.8424C6.75305 49.6884 6.73716 49.5311 6.68401 49.3848C6.60642 49.182 6.56528 48.9671 6.56248 48.75C6.56307 48.2529 6.76081 47.7764 7.11231 47.4249C7.46381 47.0733 7.94038 46.8756 8.43748 46.875V54.375H5.62498C5.12788 54.3744 4.65131 54.1767 4.29981 53.8252C3.94831 53.4737 3.75057 52.9971 3.74998 52.5ZM44.0625 54.375H32.8125V33.75H44.0625V54.375ZM45.9375 54.375V32.8125C45.9375 32.5639 45.8387 32.3254 45.6629 32.1496C45.4871 31.9738 45.2486 31.875 45 31.875H31.875C31.6263 31.875 31.3879 31.9738 31.2121 32.1496C31.0363 32.3254 30.9375 32.5639 30.9375 32.8125V54.375H10.3125V27.665L30 13.3467L49.6875 27.665V54.375H45.9375ZM54.375 54.375H51.5625V46.875C52.0596 46.8756 52.5362 47.0733 52.8877 47.4249C53.2392 47.7764 53.4369 48.2529 53.4375 48.75C53.4347 48.9673 53.3936 49.1824 53.316 49.3853C53.2628 49.5316 53.2469 49.6889 53.2697 49.8428C53.2925 49.9968 53.3533 50.1427 53.4466 50.2673C53.5399 50.3919 53.6628 50.4913 53.8041 50.5566C53.9454 50.6219 54.1008 50.6509 54.2562 50.6411C54.305 50.6379 54.353 50.6322 54.4009 50.6255H54.4031C54.9004 50.6292 55.3758 50.8303 55.7248 51.1846C56.0738 51.5389 56.2678 52.0173 56.264 52.5146C56.2603 53.0118 56.0592 53.4873 55.7049 53.8363C55.3507 54.1853 54.8723 54.3792 54.375 54.3755V54.375Z" fill="#6C6C6C"/>
<path d="M26.25 31.875H15C14.7513 31.875 14.5129 31.9738 14.3371 32.1496C14.1613 32.3254 14.0625 32.5639 14.0625 32.8125V45.9375C14.0625 46.1862 14.1613 46.4246 14.3371 46.6005C14.5129 46.7763 14.7513 46.875 15 46.875H26.25C26.4986 46.875 26.7371 46.7763 26.9129 46.6005C27.0887 46.4246 27.1875 46.1862 27.1875 45.9375V32.8125C27.1875 32.5639 27.0887 32.3254 26.9129 32.1496C26.7371 31.9738 26.4986 31.875 26.25 31.875ZM25.3125 38.4375H21.5625V33.75H25.3125V38.4375ZM19.6875 33.75V38.4375H15.9375V33.75H19.6875ZM15.9375 40.3125H19.6875V45H15.9375V40.3125ZM21.5625 45V40.3125H25.3125V45H21.5625Z" fill="#6C6C6C"/>
<path d="M36.4912 43.4838C36.6893 43.0055 36.4622 42.457 35.9838 42.2589C35.5054 42.0608 34.957 42.2879 34.7589 42.7663C34.5608 43.2446 34.7879 43.793 35.2663 43.9912C35.7446 44.1893 36.293 43.9622 36.4912 43.4838Z" fill="#6C6C6C"/>
</svg>
