<svg width="60" height="60" viewBox="0 0 60 60" fill="none" xmlns="http://www.w3.org/2000/svg">
<g clip-path="url(#clip0)">
<path d="M8.74971 9.98195C6.67865 9.98195 4.99969 11.6609 4.99969 13.732V23.732H7.49967V13.732C7.49967 13.0416 8.05936 12.4819 8.74971 12.4819H38.7498V9.98195H8.74971Z" fill="#6C6C6C"/>
<path d="M8.74971 47.4821C8.05936 47.4821 7.49967 46.9224 7.49967 46.2321V33.732H4.99969V46.2321C4.99969 48.3031 6.67865 49.9821 8.74971 49.9821H21.2498V47.4821H8.74971Z" fill="#6C6C6C"/>
<path d="M39.6337 50.7058L9.27601 20.3482C8.78792 19.8602 7.99667 19.8602 7.50847 20.3482L0.365978 27.4908C-0.121993 27.9789 -0.121993 28.7701 0.365978 29.2583L30.7236 59.6159C30.958 59.8504 31.2759 59.9821 31.6074 59.9821C31.9389 59.982 32.2567 59.8502 32.4911 59.6159L39.6336 52.4734C40.1216 51.9852 40.1216 51.1939 39.6337 50.7058ZM31.6074 56.9646L3.01724 28.3745L8.3923 22.9994L36.9824 51.5897L31.6074 56.9646Z" fill="#6C6C6C"/>
<path d="M55 47.4821H36.2499V49.9821H49.9999V56.2321C49.9999 56.9224 50.5596 57.4821 51.2499 57.4821H55C57.7614 57.4821 60 55.2436 60 52.482C60 49.7206 57.7614 47.4821 55 47.4821ZM55 54.9821H52.5V49.9821H55C56.3807 49.9821 57.4999 51.1013 57.4999 52.482C57.4999 53.8629 56.3807 54.9821 55 54.9821Z" fill="#6C6C6C"/>
<path d="M54.9999 9.98195H48.7499V12.4819H54.9999C56.3806 12.4819 57.4999 13.6012 57.4999 14.9819V52.482H59.9999V14.9819C60 12.2205 57.7613 9.98195 54.9999 9.98195Z" fill="#6C6C6C"/>
<path d="M22.8665 35.348L19.1162 39.0983L20.8839 40.866L24.6342 37.1157L22.8665 35.348Z" fill="#6C6C6C"/>
<path d="M17.8666 30.348L14.1163 34.0983L15.884 35.866L19.6344 32.1157L17.8666 30.348Z" fill="#6C6C6C"/>
<path d="M27.8638 40.348L24.1135 44.0984L25.8812 45.8661L29.6315 42.1158L27.8638 40.348Z" fill="#6C6C6C"/>
<path d="M32.8661 45.3506L29.1158 49.1009L30.8835 50.8686L34.6338 47.1183L32.8661 45.3506Z" fill="#6C6C6C"/>
<path d="M12.8632 25.3479L9.11285 29.0983L10.8806 30.866L14.6309 27.1157L12.8632 25.3479Z" fill="#6C6C6C"/>
<path d="M53.9175 2.79188L52.1899 1.06442C50.7282 -0.330941 48.4278 -0.330941 46.9661 1.06442L27.9586 20.072C27.4706 20.56 27.4706 21.3513 27.9586 21.8395L33.1424 27.0233C33.3762 27.2586 33.6945 27.3905 34.0261 27.3895C34.3576 27.3894 34.6754 27.2577 34.9098 27.0233L53.9175 8.01566C53.918 8.01507 53.9186 8.01448 53.9192 8.0139C55.3607 6.57143 55.3599 4.23341 53.9175 2.79188ZM52.1512 6.24694L34.0261 24.3719L30.6098 20.9557L48.7349 2.83185C49.207 2.38079 49.9504 2.38079 50.4224 2.83185L52.1512 4.55814C52.1513 4.55838 52.1516 4.55849 52.1518 4.55873C52.6177 5.02502 52.6175 5.78088 52.1512 6.24694Z" fill="#6C6C6C"/>
<path d="M33.6248 24.9545L28.2299 26.7558L30.0312 21.352L27.6561 20.5607L25.0636 28.337C25.0211 28.4645 24.9995 28.598 24.9995 28.7323C24.9996 29.4226 25.5594 29.9822 26.2497 29.982C26.382 29.9824 26.5136 29.9621 26.6397 29.922L34.416 27.3294L33.6248 24.9545Z" fill="#6C6C6C"/>
<path d="M45.277 4.51933L43.5093 6.28706L48.6933 11.471L50.461 9.70328L45.277 4.51933Z" fill="#6C6C6C"/>
<path d="M44.9999 27.482H26.2498V29.982H44.9999V27.482Z" fill="#6C6C6C"/>
<path d="M49.9999 27.482H47.4999V29.982H49.9999V27.482Z" fill="#6C6C6C"/>
<path d="M54.9999 27.482H52.5V29.982H54.9999V27.482Z" fill="#6C6C6C"/>
</g>
<defs>
<clipPath id="clip0">
<rect width="60" height="60" fill="white"/>
</clipPath>
</defs>
</svg>
