<svg width="60" height="60" viewBox="0 0 60 60" fill="none" xmlns="http://www.w3.org/2000/svg">
<path d="M30 46.143C32.6031 46.1431 35.1478 45.3712 37.3123 43.925C39.4767 42.4787 41.1637 40.4232 42.1599 38.0182C43.1561 35.6132 43.4167 32.9668 42.9089 30.4137C42.4011 27.8605 41.1475 25.5154 39.3068 23.6747C37.4661 21.834 35.1209 20.5804 32.5678 20.0726C30.0147 19.5647 27.3683 19.8254 24.9633 20.8216C22.5583 21.8178 20.5027 23.5048 19.0565 25.6692C17.6103 27.8336 16.8384 30.3783 16.8384 32.9815C16.8424 36.4709 18.2303 39.8163 20.6977 42.2838C23.1651 44.7512 26.5105 46.1391 30 46.143ZM30 21.2261C32.9224 21.2297 35.7389 22.3203 37.9017 24.2856C40.0646 26.251 41.419 28.9506 41.7015 31.8593L41.2306 32.1777C40.5965 32.6091 39.8474 32.8398 39.0805 32.8398C38.3136 32.8398 37.5645 32.6091 36.9305 32.1777L36.1147 31.6262C35.9984 31.5476 35.8613 31.5056 35.7209 31.5056C35.5806 31.5056 35.4434 31.5476 35.3271 31.6262L34.5115 32.177C33.8775 32.6085 33.1283 32.8393 32.3614 32.8393C31.5945 32.8393 30.8453 32.6085 30.2113 32.177L29.3957 31.6262C29.2794 31.5476 29.1422 31.5056 29.0019 31.5056C28.8615 31.5056 28.7243 31.5476 28.608 31.6262L27.7932 32.177C27.1592 32.6086 26.4099 32.8395 25.6429 32.8395C24.8758 32.8395 24.1265 32.6086 23.4925 32.177L22.6777 31.6262C22.5614 31.5476 22.4242 31.5055 22.2838 31.5055C22.1434 31.5055 22.0062 31.5476 21.8899 31.6262L21.0755 32.177C20.2477 32.7396 19.2319 32.9543 18.2473 32.7746C18.3048 29.6944 19.568 26.7596 21.7654 24.6004C23.9628 22.4411 26.9193 21.2297 30 21.2261ZM21.8632 33.342L22.2838 33.0574L22.7048 33.3422C23.5712 33.9318 24.5949 34.2472 25.6429 34.2472C26.6908 34.2472 27.7145 33.9318 28.5809 33.3422L29.0018 33.0574L29.4237 33.3425C30.2899 33.9321 31.3135 34.2474 32.3614 34.2474C33.4092 34.2474 34.4328 33.9321 35.2991 33.3425L35.721 33.0574L36.1429 33.3427C36.963 33.9011 37.9255 34.2141 38.9173 34.2447C39.9091 34.2753 40.8891 34.0224 41.7422 33.5156C41.6074 36.478 40.3579 39.28 38.2443 41.3599C36.1306 43.4399 33.309 44.6442 30.3448 44.7315C27.3807 44.8187 24.4931 43.7824 22.2608 41.8303C20.0285 39.8782 18.6164 37.1546 18.3076 34.2053C19.5582 34.3566 20.8213 34.0499 21.8632 33.342Z" fill="#30A8F7"/>
<path d="M10.3125 32.9815C10.3078 33.857 10.6022 34.7079 11.147 35.3932C11.6918 36.0786 12.4544 36.5574 13.3084 36.7502C14.1677 40.536 16.2871 43.9178 19.3197 46.3415C22.3522 48.7652 26.1179 50.0872 30 50.0909C39.4342 50.0909 47.1094 42.4157 47.1094 32.9815C47.1094 23.5473 39.4342 15.8721 30 15.8721C26.1179 15.8758 22.3522 17.1978 19.3197 19.6215C16.2871 22.0452 14.1677 25.427 13.3084 29.2127C12.4544 29.4056 11.6918 29.8843 11.147 30.5697C10.6021 31.2551 10.3077 32.106 10.3125 32.9815ZM13.9593 30.531C14.1112 30.5175 14.2546 30.455 14.3679 30.3529C14.4812 30.2508 14.5582 30.1147 14.5874 29.965C15.29 26.3928 17.2108 23.1752 20.0217 20.8614C22.8325 18.5477 26.3593 17.2813 30 17.2784C38.6588 17.2784 45.7031 24.3227 45.7031 32.9815C45.7031 41.6402 38.6588 48.6846 30 48.6846C26.3593 48.6817 22.8325 47.4153 20.0217 45.1016C17.2108 42.7878 15.29 39.5702 14.5874 35.998C14.5582 35.8483 14.4812 35.7121 14.3679 35.61C14.2546 35.5079 14.1112 35.4455 13.9593 35.432C13.3472 35.3771 12.7779 35.0952 12.3633 34.6417C11.9487 34.1882 11.7188 33.596 11.7188 32.9815C11.7188 32.367 11.9487 31.7748 12.3633 31.3213C12.7779 30.8678 13.3472 30.5859 13.9593 30.531Z" fill="#30A8F7"/>
<path d="M47.5781 1.17188H12.4219C10.9922 1.17188 9.62107 1.73981 8.61013 2.75075C7.59919 3.76169 7.03125 5.13282 7.03125 6.5625V53.3203C7.03125 54.75 7.59919 56.1211 8.61013 57.1321C9.62107 58.143 10.9922 58.7109 12.4219 58.7109H47.5781C49.0078 58.7109 50.3789 58.143 51.3899 57.1321C52.4008 56.1211 52.9688 54.75 52.9688 53.3203V6.5625C52.9688 5.13282 52.4008 3.76169 51.3899 2.75075C50.3789 1.73981 49.0078 1.17188 47.5781 1.17188ZM45.7031 57.3047H14.2969V56.9569C14.2976 56.2108 14.594 55.4955 15.1212 54.9676C15.6484 54.4397 16.3633 54.1423 17.1094 54.1406H42.8906C43.6367 54.1423 44.3516 54.4397 44.8788 54.9676C45.406 55.4955 45.7024 56.2108 45.7031 56.9569V57.3047ZM51.5625 53.3482C51.5614 53.8698 51.4573 54.3861 51.2563 54.8674C51.0554 55.3487 50.7614 55.7857 50.3913 56.1532C50.0212 56.5207 49.5822 56.8116 49.0994 57.0092C48.6167 57.2068 48.0997 57.3072 47.5781 57.3047H47.1094V56.9569C47.1083 55.838 46.6636 54.7652 45.8728 53.9736C45.0819 53.1821 44.0095 52.7365 42.8906 52.7344H17.1094C15.9905 52.7365 14.9181 53.1821 14.1272 53.9736C13.3364 54.7652 12.8917 55.838 12.8906 56.9569V57.3047H12.4219C11.9003 57.3072 11.3833 57.2068 10.9006 57.0092C10.4178 56.8116 9.97885 56.5207 9.60872 56.1532C9.2386 55.7857 8.94463 55.3487 8.74365 54.8674C8.54267 54.3861 8.43863 53.8698 8.4375 53.3482V13.4766H51.5625V53.3482ZM51.5625 12.0703H8.4375V6.56625C8.43852 5.5095 8.85851 4.49626 9.6054 3.74867C10.3523 3.00108 11.3651 2.58014 12.4219 2.57812H47.5781C48.6349 2.58014 49.6477 3.00108 50.3946 3.74867C51.1415 4.49626 51.5615 5.5095 51.5625 6.56625V12.0703Z" fill="#30A8F7"/>
<path d="M22.3633 4.92188H14.2773C13.6868 4.92188 13.1205 5.15646 12.7029 5.57402C12.2854 5.99158 12.0508 6.55792 12.0508 7.14844C12.0508 7.73896 12.2854 8.30529 12.7029 8.72285C13.1205 9.14042 13.6868 9.375 14.2773 9.375H22.3633C22.9538 9.375 23.5201 9.14042 23.9377 8.72285C24.3553 8.30529 24.5898 7.73896 24.5898 7.14844C24.5898 6.55792 24.3553 5.99158 23.9377 5.57402C23.5201 5.15646 22.9538 4.92188 22.3633 4.92188ZM17.5782 7.96875H14.2773C14.0598 7.96875 13.8511 7.88232 13.6973 7.72849C13.5435 7.57465 13.457 7.366 13.457 7.14844C13.457 6.93088 13.5435 6.72223 13.6973 6.56839C13.8511 6.41455 14.0598 6.32812 14.2773 6.32812H17.5782V7.96875ZM22.3633 7.96875H18.9844V6.32812H22.3633C22.5808 6.32812 22.7895 6.41455 22.9433 6.56839C23.0972 6.72223 23.1836 6.93088 23.1836 7.14844C23.1836 7.366 23.0972 7.57465 22.9433 7.72849C22.7895 7.88232 22.5808 7.96875 22.3633 7.96875Z" fill="#30A8F7"/>
<path d="M39.6826 4.76074C39.2104 4.76074 38.7487 4.90078 38.3561 5.16314C37.9634 5.4255 37.6574 5.79841 37.4767 6.23471C37.296 6.671 37.2487 7.15109 37.3408 7.61425C37.4329 8.07742 37.6603 8.50287 37.9943 8.83679C38.3282 9.17072 38.7536 9.39812 39.2168 9.49025C39.68 9.58238 40.1601 9.5351 40.5963 9.35438C41.0326 9.17366 41.4056 8.86762 41.6679 8.47497C41.9303 8.08232 42.0703 7.62068 42.0703 7.14844C42.0695 6.51542 41.8177 5.90855 41.3701 5.46094C40.9225 5.01333 40.3156 4.76152 39.6826 4.76074ZM39.6826 8.12988C39.4885 8.12988 39.2988 8.07232 39.1374 7.96448C38.976 7.85664 38.8502 7.70336 38.7759 7.52402C38.7016 7.34468 38.6822 7.14735 38.72 6.95697C38.7579 6.76659 38.8514 6.59171 38.9886 6.45445C39.1259 6.31719 39.3008 6.22372 39.4911 6.18585C39.6815 6.14798 39.8789 6.16742 40.0582 6.2417C40.2375 6.31598 40.3908 6.44178 40.4987 6.60318C40.6065 6.76457 40.6641 6.95433 40.6641 7.14844C40.6638 7.40864 40.5603 7.65809 40.3763 7.84208C40.1923 8.02607 39.9428 8.12957 39.6826 8.12988Z" fill="#30A8F7"/>
<path d="M45.542 4.76074C45.0698 4.76074 44.6081 4.90078 44.2155 5.16314C43.8228 5.4255 43.5168 5.79841 43.3361 6.23471C43.1553 6.671 43.108 7.15109 43.2002 7.61425C43.2923 8.07742 43.5197 8.50287 43.8536 8.83679C44.1876 9.17072 44.613 9.39812 45.0762 9.49025C45.5393 9.58238 46.0194 9.5351 46.4557 9.35438C46.892 9.17366 47.2649 8.86762 47.5273 8.47497C47.7897 8.08232 47.9297 7.62068 47.9297 7.14844C47.9289 6.51542 47.6771 5.90855 47.2295 5.46094C46.7819 5.01333 46.175 4.76152 45.542 4.76074ZM45.542 8.12988C45.3479 8.12988 45.1581 8.07232 44.9967 7.96448C44.8353 7.85664 44.7095 7.70336 44.6353 7.52402C44.561 7.34468 44.5415 7.14735 44.5794 6.95697C44.6173 6.76659 44.7107 6.59171 44.848 6.45445C44.9853 6.31719 45.1601 6.22372 45.3505 6.18585C45.5409 6.14798 45.7382 6.16742 45.9176 6.2417C46.0969 6.31598 46.2502 6.44178 46.358 6.60318C46.4659 6.76457 46.5234 6.95433 46.5234 7.14844C46.5231 7.40864 46.4196 7.65809 46.2356 7.84208C46.0516 8.02607 45.8022 8.12957 45.542 8.12988Z" fill="#30A8F7"/>
<path d="M10.7812 28.1148C10.9677 28.1148 11.1466 28.0407 11.2784 27.9089C11.4103 27.777 11.4844 27.5982 11.4844 27.4117V18.528C11.4844 18.3416 11.4103 18.1627 11.2784 18.0309C11.1466 17.899 10.9677 17.8249 10.7812 17.8249C10.5948 17.8249 10.4159 17.899 10.2841 18.0309C10.1522 18.1627 10.0781 18.3416 10.0781 18.528V27.4117C10.0781 27.5982 10.1522 27.777 10.2841 27.9089C10.4159 28.0407 10.5948 28.1148 10.7812 28.1148Z" fill="#30A8F7"/>
<path d="M10.7812 16.8429C10.9677 16.8429 11.1466 16.7688 11.2784 16.6369C11.4103 16.5051 11.4844 16.3262 11.4844 16.1398V15.5733C11.4844 15.3868 11.4103 15.208 11.2784 15.0761C11.1466 14.9442 10.9677 14.8702 10.7812 14.8702C10.5948 14.8702 10.4159 14.9442 10.2841 15.0761C10.1522 15.208 10.0781 15.3868 10.0781 15.5733V16.1398C10.0781 16.3262 10.1522 16.5051 10.2841 16.6369C10.4159 16.7688 10.5948 16.8429 10.7812 16.8429Z" fill="#30A8F7"/>
</svg>
